HIERARCHY
ROOT Hips
{
	OFFSET	0.00	0.00	0.00
	CHANNELS 6 Xposition Yposition Zposition Zrotation Xrotation Yrotation
	JOINT LeftUpLeg
	{
		OFFSET	 0.126116	-0.014019	-0.065224
		CHANNELS 3 Zrotation Xrotation Yrotation
		JOINT LeftLeg
		{
			OFFSET	 0.000000	 0.000000	 0.569914
			CHANNELS 3 Zrotation Xrotation Yrotation
			JOINT LeftFoot
			{
				OFFSET	 0.000000	 0.000000	 0.544423
				CHANNELS 3 Zrotation Xrotation Yrotation
				JOINT LeftToeBase
				{
					OFFSET	 0.000000	 0.000000	 0.207117
					CHANNELS 3 Zrotation Xrotation Yrotation
					End Site
					{
						OFFSET	 0.000000	 0.000000	 0.207117
					}
				}
			}
		}
	}
	JOINT RightUpLeg
	{
		OFFSET	-0.124023	-0.008373	-0.065224
		CHANNELS 3 Zrotation Xrotation Yrotation
		JOINT RightLeg
		{
			OFFSET	 0.000000	 0.000000	 0.570047
			CHANNELS 3 Zrotation Xrotation Yrotation
			JOINT RightFoot
			{
				OFFSET	 0.000000	 0.000000	 0.544354
				CHANNELS 3 Zrotation Xrotation Yrotation
				JOINT RightToeBase
				{
					OFFSET	 0.000000	 0.000000	 0.207540
					CHANNELS 3 Zrotation Xrotation Yrotation
					End Site
					{
						OFFSET	 0.000000	 0.000000	 0.207540
					}
				}
			}
		}
	}
	JOINT Spine
	{
		OFFSET	 0.000184	-0.007763	 0.117403
		CHANNELS 3 Zrotation Xrotation Yrotation
		JOINT Spine1
		{
			OFFSET	 0.000000	 0.000000	 0.137269
			CHANNELS 3 Zrotation Xrotation Yrotation
			JOINT Spine2
			{
				OFFSET	 0.000000	 0.000000	 0.156879
				CHANNELS 3 Zrotation Xrotation Yrotation
				JOINT LeftShoulder
				{
					OFFSET	 0.080501	-0.002496	 0.160144
					CHANNELS 3 Zrotation Xrotation Yrotation
					JOINT LeftArm
					{
						OFFSET	 0.000000	 0.000000	 0.164363
						CHANNELS 3 Zrotation Xrotation Yrotation
						JOINT LeftForeArm
						{
							OFFSET	 0.000000	 0.000000	 0.364576
							CHANNELS 3 Zrotation Xrotation Yrotation
							JOINT LeftHand
							{
								OFFSET	 0.000000	 0.000000	 0.360812
								CHANNELS 3 Zrotation Xrotation Yrotation
								JOINT LeftHandIndex1
								{
									OFFSET	 0.000000	 0.000000	 0.086006
									CHANNELS 3 Zrotation Xrotation Yrotation
									JOINT LeftHandIndex2
									{
										OFFSET	 0.000000	 0.000000	 0.047236
										CHANNELS 3 Zrotation Xrotation Yrotation
										JOINT LeftHandIndex3
										{
											OFFSET	-0.004284	-0.000551	 0.038166
											CHANNELS 3 Zrotation Xrotation Yrotation
											End Site
											{
												OFFSET	-0.004284	-0.000551	 0.038166
											}
										}
									}
								}
							}
						}
					}
				}
				JOINT Neck
				{
					OFFSET	 0.000000	 0.000000	 0.176489
					CHANNELS 3 Zrotation Xrotation Yrotation
					JOINT Head
					{
						OFFSET	 0.000000	-0.001747	 0.077940
						CHANNELS 3 Zrotation Xrotation Yrotation
						End Site
						{
							OFFSET	 0.000000	-0.001747	 0.077940
						}
					}
				}
				JOINT RightShoulder
				{
					OFFSET	-0.080363	 0.000306	 0.159706
					CHANNELS 3 Zrotation Xrotation Yrotation
					JOINT RightArm
					{
						OFFSET	 0.000000	 0.000000	 0.164196
						CHANNELS 3 Zrotation Xrotation Yrotation
						JOINT RightForeArm
						{
							OFFSET	 0.000000	 0.000000	 0.365611
							CHANNELS 3 Zrotation Xrotation Yrotation
							JOINT RightHand
							{
								OFFSET	 0.000000	 0.000000	 0.360648
								CHANNELS 3 Zrotation Xrotation Yrotation
								JOINT RightHandIndex1
								{
									OFFSET	 0.000000	 0.000000	 0.069977
									CHANNELS 3 Zrotation Xrotation Yrotation
									JOINT RightHandIndex2
									{
										OFFSET	 0.000000	 0.000000	 0.052305
										CHANNELS 3 Zrotation Xrotation Yrotation
										JOINT RightHandIndex3
										{
											OFFSET	 0.009002	-0.000782	 0.042196
											CHANNELS 3 Zrotation Xrotation Yrotation
											End Site
											{
												OFFSET	 0.009002	-0.000782	 0.042196
											}
										}
									}
								}
							}
						}
					}
				}
			}
		}
	}
}
MOTION
Frames:    12
Frame Time: 0.03333334
 0.012781	 0.038554	 1.202039	 5.129106	-0.979491	-2.730892	-3.388747	-11.998480	-171.544100	 1.039959	-38.475570	 0.427600	 50.701900	 80.884710	-54.908680	-2.369382	 31.618570	-0.070005	-2.617892	-31.378030	-175.583600	 10.814500	-50.169460	 8.936626	 22.312460	 76.481800	-19.359420	 2.358917	 33.007920	 0.103411	-7.559719	 8.404333	 2.005953	-2.078618	 2.193223	-1.411206	 3.176804	-2.469076	 1.594535	-93.984700	 58.960690	 175.290100	 18.913200	 37.405380	-39.766880	-1.809284	-0.046109	-0.853424	-3.215682	-28.211890	-9.154015	-4.869291	 19.265170	-2.792411	-3.877021	 21.530390	 2.198174	-4.805899	 5.573392	 0.145337	-0.064893	-5.086046	 0.194185	 1.069907	 1.706310	 2.679940	 89.763840	 61.671850	 179.956500	-20.677520	 54.523970	 10.713520	-1.296068	-2.224806	 12.031430	-3.785711	-13.597690	 0.761675	 6.289387	 24.482710	-0.538600	 1.932967	 44.314090	-7.035381	 0.598215	 23.959710	 3.531968
 0.012522	 0.033432	 1.201898	 5.262510	-0.852610	-2.737814	-3.524542	-11.830030	-171.570100	 1.092935	-38.378260	 0.459583	 51.138120	 80.957980	-55.390480	-2.369149	 31.656310	-0.070863	-2.976956	-31.852200	-175.554800	 10.910680	-49.516560	 8.926891	 23.525470	 76.926760	-20.782210	 2.358942	 33.004410	 0.103328	-7.767282	 8.304120	 1.965960	-2.085626	 2.226788	-1.370308	 3.135991	-2.571593	 1.577174	-94.017880	 58.966060	 175.218700	 18.831920	 37.090200	-39.996200	-1.920461	-0.044123	-0.898562	-3.390801	-28.748320	-9.413473	-4.868127	 19.295000	-2.794363	-3.875152	 21.554310	 2.196272	-4.805475	 5.578364	 0.145049	-0.058076	-5.091023	 0.203928	 1.047656	 1.659962	 2.658700	 89.750960	 61.695170	 179.925600	-20.584940	 54.681060	 10.304610	-1.342538	-2.254553	 12.183850	-3.696872	-14.011820	 0.753714	 6.286125	 24.249900	-0.541841	 1.960600	 44.086360	-7.059940	 0.648758	 23.736270	 3.506664
 0.010678	-0.004928	 1.200547	 6.036651	-0.053915	-2.846799	-4.374510	-10.282540	-171.706800	 1.402374	-37.436130	 0.638104	 54.865220	 81.539000	-59.388500	-2.367535	 31.921770	-0.076889	-5.084102	-34.548460	-175.448400	 11.016200	-43.720890	 8.197759	 32.119950	 78.317730	-30.795410	 2.359467	 32.926940	 0.101528	-9.052630	 7.645565	 1.761100	-2.134507	 2.575733	-1.086991	 2.827488	-3.270787	 1.434670	-94.223190	 58.993090	 174.777100	 17.986330	 34.839640	-41.632150	-2.697922	-0.029649	-1.213826	-4.742207	-32.232970	-10.993390	-4.859287	 19.513600	-2.807197	-3.862368	 21.717040	 2.183294	-4.801625	 5.623672	 0.142397	-0.019049	-5.128626	 0.265757	 0.844192	 1.374662	 2.537313	 89.661340	 61.842820	 179.710100	-19.924390	 55.669740	 7.714170	-1.731012	-2.354411	 12.612740	-3.202029	-16.691550	 0.650152	 6.263675	 22.718400	-0.569618	 2.130095	 42.644070	-7.209868	 0.981604	 22.243010	 3.344096
 0.008602	-0.055481	 1.197715	 6.432868	 0.716357	-3.277435	-4.893889	-7.565833	-171.574600	 1.576730	-35.536490	 0.711494	 59.931060	 82.142070	-64.644680	-2.363925	 32.493530	-0.089969	-5.822547	-36.127850	-174.996700	 10.533500	-34.194490	 6.387859	 33.957460	 76.214550	-34.018440	 2.359778	 32.881060	 0.100464	-10.201580	 6.811067	 1.845853	-2.149041	 3.436258	-0.713211	 2.419359	-4.147949	 1.184174	-94.403920	 58.979500	 174.393900	 16.506210	 32.266880	-43.597160	-4.060388	-0.002481	-1.584766	-6.686167	-36.446500	-11.721730	-4.840570	 19.925650	-2.821104	-3.842168	 21.973120	 2.162757	-4.788132	 5.782482	 0.133066	 0.002272	-5.209151	 0.325530	 0.475545	 1.073309	 2.482280	 89.523000	 61.990730	 179.374500	-18.872200	 56.546450	 5.210867	-2.693194	-2.275458	 11.747440	-3.193112	-19.760820	-0.062702	 6.227054	 20.652840	-0.644444	 2.331383	 40.824920	-7.386165	 1.441268	 20.118850	 3.131695
 0.006179	-0.099480	 1.193328	 6.571573	 1.036749	-3.624982	-5.222611	-4.742916	-171.484800	 1.677331	-33.764090	 0.736281	 61.384210	 82.452440	-66.178770	-2.355873	 33.677020	-0.117453	-5.079897	-36.610100	-174.367600	 9.822194	-26.666960	 4.791909	 51.331620	 77.079500	-51.873520	 2.349727	 34.292000	 0.133577	-11.203360	 6.247548	 1.966491	-2.097034	 4.413603	-0.396403	 2.019239	-4.959193	 0.932184	-94.489650	 58.952880	 174.215800	 15.163280	 30.722300	-44.913160	-5.066505	 0.025912	-1.932515	-8.832180	-39.691780	-12.690650	-4.825409	 20.292540	-2.842970	-3.818842	 22.266530	 2.139067	-4.763823	 6.067616	 0.116222	 0.034862	-5.300699	 0.346693	 0.108574	 0.798561	 2.369981	 89.425440	 62.047550	 179.137100	-17.524490	 57.007660	 3.038722	-3.668027	-2.138862	 10.797550	-3.279862	-22.714210	-1.018498	 6.187841	 18.539830	-0.717248	 2.598094	 38.220410	-7.616470	 1.880774	 18.022400	 2.942421
 0.002746	-0.142894	 1.186076	 6.841549	 1.062897	-3.868834	-5.712256	-1.710128	-171.515600	 1.888920	-32.283130	 0.820630	 58.290480	 82.532580	-63.193370	-2.336969	 36.083330	-0.175209	-4.765674	-38.821470	-173.965000	 10.333440	-23.503030	 4.470205	 52.541790	 75.395370	-54.129500	 2.335051	 36.107040	 0.177489	-12.418890	 6.209542	 2.031536	-1.989305	 4.957088	-0.074129	 1.542192	-5.769876	 0.637074	-94.545500	 58.909050	 174.104200	 13.849200	 29.906600	-45.835220	-5.549527	 0.056164	-2.294195	-11.693470	-43.205040	-15.015020	-4.844125	 20.500080	-3.012712	-3.790878	 22.615250	 2.110673	-4.726679	 6.501152	 0.090357	 0.104827	-5.395045	 0.353030	-0.273706	 0.601384	 2.071631	 89.358350	 61.967110	 178.977900	-15.954770	 57.275380	-0.088130	-4.416932	-2.284779	 11.325530	-3.041133	-26.015590	-1.786009	 6.163787	 16.352220	-0.691507	 2.860406	 35.421370	-7.838762	 2.323433	 15.848790	 2.766149
-0.003142	-0.193693	 1.176140	 7.093595	 0.967027	-3.607386	-6.396462	 1.971511	-172.146300	 2.333908	-30.623750	 1.009509	 42.937640	 81.373860	-47.960060	-2.281155	 41.418770	-0.314338	-4.180250	-41.989980	-174.076900	 9.848120	-22.789050	 4.148447	 34.363860	 71.210570	-35.772270	 2.338806	 35.666480	 0.166678	-13.893030	 6.100167	 1.741927	-1.773406	 5.799621	 0.151218	 0.887844	-6.567394	 0.269200	-94.517040	 59.209500	 174.114800	 12.549760	 29.685640	-46.858100	-6.150685	 0.098893	-2.710172	-15.783870	-46.762910	-18.501070	-4.877879	 20.605770	-3.240605	-3.764449	 22.941970	 2.083838	-4.675332	 7.095917	 0.054371	 0.183450	-5.481328	 0.277390	-0.711575	 0.485769	 1.837187	 89.355920	 61.652750	 178.983800	-14.470760	 57.232780	-3.766735	-4.929542	-2.697164	 13.108030	-2.790266	-29.586260	-2.256810	 6.190879	 13.986630	-0.415663	 3.022687	 33.560840	-7.973882	 2.783143	 13.529230	 2.599115
-0.009810	-0.244363	 1.168119	 7.344436	 0.596686	-2.814935	-6.609851	 6.240665	-173.473400	 1.783534	-28.105400	 0.674160	 25.377060	 77.738990	-29.389140	-2.149324	 49.427330	-0.564961	-2.169293	-42.927540	-174.056300	 6.460233	-22.242740	 2.744744	 18.633410	 65.308620	-16.119480	 2.340929	 35.410730	 0.160456	-15.296500	 6.113878	 0.886282	-1.586819	 6.630321	 0.518681	 0.180790	-7.072524	-0.253034	-94.450510	 59.379330	 174.229300	 11.633370	 29.595370	-47.463170	-6.909380	 0.146774	-3.096030	-18.827600	-48.702710	-20.768590	-4.894312	 20.721190	-3.373597	-3.753217	 23.079940	 2.072431	-4.623833	 7.687326	 0.018006	 0.263954	-5.475465	 0.239419	-1.151473	 0.517836	 1.958867	 89.353580	 61.409370	 178.987100	-13.371110	 56.979730	-6.140149	-5.214381	-2.859103	 14.032300	-2.652063	-32.316400	-2.162789	 6.276503	 11.881630	 0.059204	 3.137352	 32.182740	-8.068132	 3.141937	 11.677930	 2.480568
-0.016419	-0.305068	 1.161688	 8.383073	-0.211241	-2.014735	-6.193577	 10.859650	-175.314100	-0.283354	-26.818170	-0.286983	 13.775820	 70.280760	-14.788260	-1.941205	 56.988030	-0.879701	 0.749203	-41.374260	-173.598800	 6.152032	-22.307460	 2.633796	 3.788242	 57.621740	 1.902543	 2.333703	 36.262030	 0.181312	-17.297060	 6.395637	 0.025209	-1.693499	 7.288040	 0.683034	-0.721875	-7.362836	-0.769169	-94.391690	 59.053840	 174.408500	 11.119270	 29.211530	-47.493270	-7.846175	 0.207579	-3.516180	-20.427380	-48.935720	-21.586820	-4.896216	 20.924050	-3.452924	-3.733804	 23.317230	 2.052731	-4.566564	 8.338953	-0.022747	 0.370804	-5.412280	 0.288593	-1.736590	 0.734971	 2.121224	 89.213750	 61.414540	 178.656300	-12.416140	 56.601940	-7.244564	-4.983075	-2.582646	 13.797920	-1.348153	-34.461740	-0.500531	 6.342350	 9.858516	 0.381056	 3.310457	 29.996890	-8.208293	 3.437637	 10.127330	 2.390940
-0.023791	-0.368766	 1.156770	 9.772258	-0.831686	-1.088580	-6.431377	 14.511230	-177.296000	 0.862335	-27.074600	 0.231957	 6.419519	 57.981660	-6.356106	-1.153617	 69.787280	-1.839077	-0.977545	-39.388450	-176.053400	 7.633505	-23.891320	 3.419002	-0.636292	 51.449760	 6.314093	 2.344917	 34.915400	 0.148488	-19.305330	 6.499820	-0.666802	-2.044658	 7.580143	 0.182594	-1.797684	-7.386108	-0.977307	-94.280130	 59.233290	 174.619200	 11.423440	 29.349380	-47.211670	-8.126248	 0.270685	-3.935018	-21.413560	-47.790440	-22.763550	-4.836480	 21.206820	-3.194430	-3.689840	 23.849080	 2.008113	-4.520831	 8.854683	-0.055522	 0.402898	-5.340567	 0.255576	-2.485473	 1.027028	 2.067772	 89.053860	 61.005670	 178.302700	-11.637530	 55.818070	-8.519881	-3.715066	-2.424732	 14.882950	 1.304768	-35.563010	 1.910351	 6.363374	 8.705844	 0.479409	 3.383812	 29.030920	-8.266859	 3.620679	 9.157048	 2.339208
-0.032043	-0.434496	 1.154316	 10.196430	-1.171991	-0.126783	-0.935649	 16.057690	 178.059100	 1.641721	-29.950330	 0.643615	 1.196461	 44.133230	 4.401701	-1.260848	 68.699780	-1.717573	-3.278980	-37.311360	-179.180800	 6.670246	-25.707760	 3.236934	-0.377457	 49.337060	 7.452335	 2.363811	 32.264230	 0.086246	-20.365580	 6.410161	-1.273888	-2.274492	 7.632862	-0.262823	-2.748862	-7.365094	-1.271790	-94.130160	 59.790040	 174.857800	 12.150080	 30.274560	-46.520700	-7.516250	 0.335284	-4.361542	-21.677760	-46.234970	-23.687340	-4.779540	 21.386680	-2.911754	-3.638322	 24.462620	 1.955840	-4.483073	 9.277405	-0.082729	 0.361407	-5.363046	 0.187658	-3.343610	 1.212875	 2.022080	 88.995440	 60.381000	 178.204300	-11.301210	 54.969310	-9.810369	-2.053860	-2.322639	 16.841480	 4.353540	-36.229880	 4.238379	 6.393147	 8.815885	 0.596985	 3.386958	 28.989010	-8.269361	 3.673567	 8.875262	 2.324789
-0.041807	-0.512857	 1.155657	 8.885116	-1.841408	 0.870624	 6.717114	 14.367200	 172.394100	 0.131131	-38.058570	-0.136604	 4.538516	 37.796510	 4.902567	-2.353709	 33.976040	-0.124490	-3.241146	-35.778930	 178.330400	 5.645387	-30.196940	 3.230752	 0.780478	 51.810570	 7.661132	 2.373756	 30.589590	 0.048350	-19.818110	 6.862335	-2.074347	-1.998529	 6.694447	 0.049668	-3.628241	-6.831327	-2.026136	-94.045270	 59.765520	 175.046700	 12.946610	 31.531980	-44.633700	-7.013822	 0.423200	-4.856616	-21.146760	-44.348640	-22.774850	-4.737529	 21.833810	-2.799669	-3.579439	 25.151490	 1.896118	-4.426510	 9.905432	-0.123739	 0.272484	-5.408348	 0.176301	-4.425310	 1.202213	 2.138975	 89.091200	 60.264470	 178.428900	-11.521680	 54.721760	-9.725943	-0.433418	-1.743406	 16.795890	 7.548066	-35.768650	 6.487053	 6.406921	 10.138820	 0.646398	 3.289121	 30.273340	-8.191165	 3.563359	 9.461686	 2.355091
